<?xml version="1.0" encoding="UTF-8" standalone="no"?>
<!-- Generator: Adobe Illustrator 18.1.1, SVG Export Plug-In . SVG Version: 6.00 Build 0)  -->

<svg
   xmlns:dc="http://purl.org/dc/elements/1.1/"
   xmlns:cc="http://creativecommons.org/ns#"
   xmlns:rdf="http://www.w3.org/1999/02/22-rdf-syntax-ns#"
   xmlns:svg="http://www.w3.org/2000/svg"
   xmlns="http://www.w3.org/2000/svg"
   xmlns:sodipodi="http://sodipodi.sourceforge.net/DTD/sodipodi-0.dtd"
   xmlns:inkscape="http://www.inkscape.org/namespaces/inkscape"
   version="1.1"
   id="Capa_1"
   x="0px"
   y="0px"
   viewBox="0 0 30.393 30.393"
   style="enable-background:new 0 0 30.393 30.393;"
   xml:space="preserve"
   sodipodi:docname="sand-clock-svgrepo-com-rotate.svg"
   inkscape:version="0.92.4 (unknown)"><metadata
   id="metadata43"><rdf:RDF><cc:Work
       rdf:about=""><dc:format>image/svg+xml</dc:format><dc:type
         rdf:resource="http://purl.org/dc/dcmitype/StillImage" /><dc:title></dc:title></cc:Work></rdf:RDF></metadata><defs
   id="defs41" /><sodipodi:namedview
   pagecolor="#ffffff"
   bordercolor="#666666"
   borderopacity="1"
   objecttolerance="10"
   gridtolerance="10"
   guidetolerance="10"
   inkscape:pageopacity="0"
   inkscape:pageshadow="2"
   inkscape:window-width="1280"
   inkscape:window-height="960"
   id="namedview39"
   showgrid="false"
   inkscape:zoom="7.764946"
   inkscape:cx="15.711636"
   inkscape:cy="15.1965"
   inkscape:window-x="0"
   inkscape:window-y="27"
   inkscape:window-maximized="1"
   inkscape:current-layer="Capa_1" />
<g
   id="g6"
   transform="rotate(180,15.1965,15.1965)">
	<path
   style="fill:#ffffff"
   d="m 14.49,14.623 c 0,0 -3.553,-3.459 -4.939,-7.436 V 6.105 H 20.84 v 1.082 c -1.8,4.391 -4.939,7.436 -4.939,7.436 z"
   id="path2"
   inkscape:connector-curvature="0" />
	<path
   style="fill:#ffffff"
   d="M 24.91,4.961 V 3.254 l 1.619,0 0.128784,-2.2237288 H 3.864 V 3.254 l 1.618,0 v 1.707 c 0,2.607 4.678,9.727 4.899,10.24 -0.217,0.514 -4.899,7.633 -4.899,10.229 v 1.705 H 3.864 v 2.227729 H 26.529 V 27.135 H 24.91 V 25.43 c 0,-2.609 -4.682,-9.682 -4.929,-10.234 C 20.228,14.643 24.91,7.568 24.91,4.961 Z M 23.291,25.43 v 1.705 H 7.1 V 25.43 c 0,-1.873 4.961,-9.295 4.961,-10.234 C 12.061,14.257 7.1,6.836 7.1,4.961 V 3.254 h 16.19 v 1.707 c 0,1.875 -5.001,9.295 -5.001,10.234 0,0.939 5.002,8.362 5.002,10.235 z"
   id="path4"
   inkscape:connector-curvature="0"
   sodipodi:nodetypes="sccccccscsccccccscssccsssccsss" />
</g>
<g
   id="g8">
</g>
<g
   id="g10">
</g>
<g
   id="g12">
</g>
<g
   id="g14">
</g>
<g
   id="g16">
</g>
<g
   id="g18">
</g>
<g
   id="g20">
</g>
<g
   id="g22">
</g>
<g
   id="g24">
</g>
<g
   id="g26">
</g>
<g
   id="g28">
</g>
<g
   id="g30">
</g>
<g
   id="g32">
</g>
<g
   id="g34">
</g>
<g
   id="g36">
</g>
</svg>
