<?xml version="1.0" encoding="iso-8859-1"?>
<!-- Generator: Adobe Illustrator 18.1.1, SVG Export Plug-In . SVG Version: 6.00 Build 0)  -->
<svg version="1.1" id="Capa_1" xmlns="http://www.w3.org/2000/svg" xmlns:xlink="http://www.w3.org/1999/xlink" x="0px" y="0px"
	 viewBox="0 0 30.393 30.393" style="enable-background:new 0 0 30.393 30.393;" xml:space="preserve">
<g>
	<path style="fill:#ffffff;" d="M14.49,14.623c0,0-3.553-3.459-4.939-7.436V6.105H20.84v1.082c-1.8,4.391-4.939,7.436-4.939,7.436
		H14.49z"/>
	<path style="fill:#ffffff;" d="M24.91,4.961V3.254h1.619V0H3.864v3.254h1.618v1.707c0,2.607,4.678,9.727,4.899,10.24
		c-0.217,0.514-4.899,7.633-4.899,10.229v1.705H3.864v3.258h22.665v-3.258H24.91V25.43c0-2.609-4.682-9.682-4.929-10.234
		C20.228,14.643,24.91,7.568,24.91,4.961z M23.291,25.43v1.705H7.1V25.43c0-1.873,4.961-9.295,4.961-10.234S7.1,6.836,7.1,4.961
		V3.254h16.19v1.707c0,1.875-5.001,9.295-5.001,10.234S23.291,23.557,23.291,25.43z"/>
</g>
<g>
</g>
<g>
</g>
<g>
</g>
<g>
</g>
<g>
</g>
<g>
</g>
<g>
</g>
<g>
</g>
<g>
</g>
<g>
</g>
<g>
</g>
<g>
</g>
<g>
</g>
<g>
</g>
<g>
</g>
</svg>
